<svg xmlns="http://www.w3.org/2000/svg" baseProfile="full" version="1.1" style="fill: none;" viewBox="11.37 11.37 112.28 112.28"><path style="stroke-width: 15px; stroke-linecap: round; stroke-linejoin: round; stroke: rgb(106, 106, 106); fill: none;" d=""/><path style="stroke-width: 15px; stroke-linecap: round; stroke-linejoin: round; stroke: rgb(74, 74, 74); fill: none;" d=""/><path style="stroke-width: 3px; stroke-linecap: round; stroke-linejoin: round; stroke: rgb(10, 10, 10); fill: none;" d="M90,15 L90,15 L120,15 L60,60 L75,60 L75,60 L75,75 L60,75 L60,60 M15,120 L15,120 L15,120 L45,120 L45,120 L105,75 L105,75 L105,75 M90,15 L90,15 L30,60 L30,60 L15,60 L15,15 L15,15 L15,15 L30,15 L15,30 M105,75 L105,75 L105,75 L105,75 L120,75 L120,120 L105,120 L105,120 L105,120 L105,120 L105,120 L120,105 M120,45 L120,45 L120,45 M15,90 L15,90 L30,90 L30,75 L15,75 M120,60 L120,60 L105,60 L105,45 L120,45 M15,90 L15,90 L15,75 M120,60 L120,60 L120,45 M60,60 L60,60 L120,15 M75,75 L75,75 L15,120 "/></svg>